<svg width="15" height="12" viewBox="0 0 15 12" fill="none" xmlns="http://www.w3.org/2000/svg">
<path d="M3.97509 4.25964C3.69766 4.25964 3.43158 4.36985 3.2354 4.56603C3.03923 4.76221 2.92902 5.02828 2.92902 5.30572C2.92902 5.58316 3.03923 5.84923 3.2354 6.04541C3.43158 6.24159 3.69766 6.3518 3.97509 6.3518C4.25253 6.3518 4.5186 6.24159 4.71478 6.04541C4.91096 5.84923 5.02117 5.58316 5.02117 5.30572C5.02117 5.02828 4.91096 4.76221 4.71478 4.56603C4.5186 4.36985 4.25253 4.25964 3.97509 4.25964ZM7.32254 4.25964C7.0451 4.25964 6.77903 4.36985 6.58285 4.56603C6.38667 4.76221 6.27646 5.02828 6.27646 5.30572C6.27646 5.58316 6.38667 5.84923 6.58285 6.04541C6.77903 6.24159 7.0451 6.3518 7.32254 6.3518C7.59998 6.3518 7.86605 6.24159 8.06223 6.04541C8.2584 5.84923 8.36862 5.58316 8.36862 5.30572C8.36862 5.02828 8.2584 4.76221 8.06223 4.56603C7.86605 4.36985 7.59998 4.25964 7.32254 4.25964ZM9.62391 5.30572C9.62391 5.02828 9.73412 4.76221 9.9303 4.56603C10.1265 4.36985 10.3925 4.25964 10.67 4.25964C10.9474 4.25964 11.2135 4.36985 11.4097 4.56603C11.6059 4.76221 11.7161 5.02828 11.7161 5.30572C11.7161 5.58316 11.6059 5.84923 11.4097 6.04541C11.2135 6.24159 10.9474 6.3518 10.67 6.3518C10.3925 6.3518 10.1265 6.24159 9.9303 6.04541C9.73412 5.84923 9.62391 5.58316 9.62391 5.30572Z" fill="#4B5259"/>
<path fill-rule="evenodd" clip-rule="evenodd" d="M10.7537 0.153106C8.49923 -0.039171 6.233 -0.050365 3.97677 0.119632L3.81525 0.132185C2.77788 0.210472 1.80838 0.677767 1.10091 1.44049C0.393434 2.20321 0.000215376 3.20504 0 4.24536V11.3729C9.58291e-05 11.4814 0.0283187 11.588 0.0819145 11.6824C0.13551 11.7767 0.212648 11.8556 0.305801 11.9112C0.398954 11.9668 0.504939 11.9974 0.613415 11.9998C0.721892 12.0023 0.829153 11.9766 0.924732 11.9252L4.19686 10.167C4.34941 10.085 4.51993 10.0421 4.69312 10.0423H12.2048C13.1521 10.0423 13.9639 9.36444 14.1338 8.43301C14.4785 6.54422 14.5053 4.61107 14.2141 2.71307L14.1287 2.15321C14.0528 1.65846 13.8127 1.20362 13.4471 0.861802C13.0814 0.519986 12.6115 0.311053 12.1127 0.268593L10.7537 0.153106ZM4.07217 1.37158C6.26151 1.20639 8.46058 1.21703 10.6482 1.40338L12.0073 1.5197C12.4558 1.5582 12.8207 1.8988 12.8885 2.34401L12.9747 2.90303C13.2443 4.66324 13.2188 6.45605 12.8994 8.2079C12.8698 8.37036 12.7842 8.5173 12.6574 8.62312C12.5306 8.72894 12.3708 8.78693 12.2056 8.78701H4.69312C4.31282 8.78707 3.93846 8.88138 3.60353 9.0615L1.25529 10.3235V4.24452C1.25534 3.52079 1.52877 2.82378 2.02084 2.29306C2.51292 1.76235 3.18731 1.43711 3.90898 1.38246L4.07133 1.37074L4.07217 1.37158Z" fill="#4B5259"/>
</svg>
